<svg xmlns="http://www.w3.org/2000/svg" width="512" height="512" viewBox="0 0 512 512">
    <path fill="#FFF" d="M256.046 16C123.467 16 16 123.521 16 255.994 16 388.559 123.462 496 256.046 496 388.548 496 496 388.559 496 255.994 495.995 123.521 388.559 16 256.046 16zm158.878 182.801l35.997-11.764c.355-.09.612-.166.983-.166.459.027.906.147 1.311.352a3.002 3.002 0 0 1 1.518 1.777 216.435 216.435 0 0 1 9.447 45.974 2.906 2.906 0 0 1-.709 2.225 3.383 3.383 0 0 1-2.032 1.158l-37.8 3.297h-.251a2.973 2.973 0 0 1-3.036-2.763 171.167 171.167 0 0 0-7.372-36.261 3.002 3.002 0 0 1 1.944-3.829zm-313.472-84.364c9.002-10.423 20.142-20.4 35.021-31.181a2.709 2.709 0 0 1 1.785-.619c.178 0 .353 0 .529.096a2.63 2.63 0 0 1 1.964 1.244l21.92 30.919a3.18 3.18 0 0 1-.71 4.274c-8.281 5.968-18.89 14.259-27.714 24.585a3.082 3.082 0 0 1-2.045 1.063h-.276a2.772 2.772 0 0 1-1.966-.806l-28.246-25.298a3.091 3.091 0 0 1-.262-4.277zM84.446 366.283a3.684 3.684 0 0 1-1.695.447 2.864 2.864 0 0 1-2.493-1.338c-21.204-32.513-32.44-71.097-32.44-111.624 0-40.533 11.141-79.108 32.351-111.624a2.95 2.95 0 0 1 2.49-1.431c.625 0 1.155.173 1.693.439l31.997 20.318c.71.448 1.158 1.158 1.33 1.961a3.061 3.061 0 0 1-.448 2.32c-33.77 51.761-33.77 124.181.096 175.95.442.71.62 1.513.442 2.304a3.072 3.072 0 0 1-1.332 1.977l-31.991 20.301zm78.576 26.364l-21.745 31.006a3.49 3.49 0 0 1-2.048 1.338h-.442a3.135 3.135 0 0 1-1.782-.535c-14.972-10.87-26.108-20.763-35.105-31.181-1.152-1.256-.98-3.123.268-4.28l28.071-25.398a2.98 2.98 0 0 1 2.045-.797h.181a3.328 3.328 0 0 1 2.141 1.059c8.734 10.243 19.427 18.525 27.708 24.585a3.099 3.099 0 0 1 .708 4.203zm5.251-327.834c12.476-6.056 26.646-10.871 44.468-15.05.262 0 .442-.096.71-.096.538 0 1.157.172 1.6.535a2.657 2.657 0 0 1 1.341 1.872l7.929 37.063a3.105 3.105 0 0 1-2.225 3.65c-14.706 3.472-25.57 7.116-35.105 11.848-.404.24-.865.362-1.335.352a3.155 3.155 0 0 1-2.764-1.771L166.86 68.91a3.13 3.13 0 0 1 1.413-4.097zm48.757 390.463a3.396 3.396 0 0 1-1.332 1.966 2.97 2.97 0 0 1-1.693.54c-.18 0-.447-.093-.715-.093-17.821-4.193-31.987-8.992-44.462-14.976a3.119 3.119 0 0 1-1.426-4.09l15.954-34.298c.33-.775.98-1.359 1.777-1.605.268-.175.625-.175.978-.175.447 0 .89.093 1.338.268 9.534 4.636 20.314 8.283 35.104 11.848a2.964 2.964 0 0 1 2.229 3.555c0 .005 0 .011-.003.011l-7.749 37.049zm224.444-104.76C407.256 417.419 333.578 462.32 258.198 462.32c-3.299 0-6.767-.093-10.064-.272a2.984 2.984 0 0 1-2.854-3.112l1.516-37.863c0-.809.353-1.6.985-2.141a2.835 2.835 0 0 1 2.045-.813h.181c2.583.099 5.242.186 7.924.186 59.436 0 117.533-35.461 144.543-88.19a3.26 3.26 0 0 1 1.764-1.518c.355-.088.628-.181.983-.181.447 0 .988.181 1.42.355l33.507 17.64a3.091 3.091 0 0 1 1.326 4.105zm13.543-32.792a3.233 3.233 0 0 1-1.518 1.774 3.912 3.912 0 0 1-1.42.279c-.35 0-.634 0-.983-.099l-35.986-11.673a3.134 3.134 0 0 1-2.043-3.833 168.21 168.21 0 0 0 7.296-36.253c.186-1.604 1.529-2.86 3.036-2.86.088 0 .186.104.251.104l37.789 3.205a3.045 3.045 0 0 1 2.753 3.281 219.94 219.94 0 0 1-9.175 46.075z"/>
</svg>
